<svg width="156" height="25" viewBox="0 0 156 25" fill="none" xmlns="http://www.w3.org/2000/svg">
<g clip-path="url(#clip0_302_1682)">
<path d="M0 12.5539C0 15.8352 1.16996 18.6497 3.50812 20.9957C5.84805 23.3435 8.64818 24.5156 11.9085 24.5156H23.794V20.187H11.9085C9.82523 20.187 8.04107 19.4352 6.55428 17.9318C5.06749 16.4284 4.32409 14.6345 4.32409 12.5539C4.32409 10.4733 5.06749 8.69913 6.55428 7.18855C8.04107 5.67798 9.82523 4.92269 11.9085 4.92269H23.794V0.570883H11.9085C8.63225 0.570883 5.83035 1.74478 3.4975 4.09081C1.16642 6.43683 0 9.25847 0 12.5539Z" fill="black"/>
<path d="M36.8802 24.5156C40.1405 24.5156 42.9353 23.3417 45.2682 20.9957C47.601 18.6497 48.7657 15.8352 48.7657 12.5539C48.7657 9.27272 47.5993 6.43683 45.2682 4.09081C42.9371 1.74478 40.1405 0.570883 36.8802 0.570883C33.6199 0.570883 30.802 1.74478 28.4692 4.09081C26.1363 6.43683 24.9717 9.25847 24.9717 12.5539C24.9717 15.8494 26.1381 18.6497 28.4692 20.9957C30.8003 23.3417 33.6039 24.5156 36.8802 24.5156ZM31.526 17.9425C30.0392 16.4462 29.2958 14.6488 29.2958 12.5539C29.2958 10.4591 30.0392 8.66172 31.526 7.16539C33.0128 5.66907 34.7969 4.92091 36.8802 4.92091C38.9635 4.92091 40.7441 5.66907 42.222 7.16539C43.7017 8.65994 44.4398 10.4573 44.4398 12.5539C44.4398 14.6506 43.7 16.4462 42.222 17.9425C40.7423 19.4388 38.9617 20.187 36.8802 20.187C34.7987 20.187 33.0128 19.4388 31.526 17.9425Z" fill="black"/>
<path d="M74.9131 7.65526C74.9131 9.53814 75.5698 11.1716 76.8831 12.5539C75.5698 13.8899 74.9131 15.5234 74.9131 17.4526C74.9131 19.3818 75.5998 21.0402 76.9734 22.4315C78.3469 23.8209 80 24.5156 81.9311 24.5156H98.7071V20.187H81.9311C81.1913 20.187 80.5576 19.9126 80.0301 19.3676C79.5009 18.8207 79.2372 18.183 79.2372 17.4544C79.2372 16.7258 79.5009 16.0667 80.0301 15.5288C80.5576 14.989 81.1913 14.72 81.9311 14.72H91.0767V10.37H81.9311C81.1913 10.37 80.5576 10.0993 80.0301 9.56129C79.5009 9.02155 79.2372 8.38917 79.2372 7.65882C79.2372 6.92848 79.5009 6.25335 80.0301 5.72251C80.5576 5.19167 81.1913 4.92625 81.9311 4.92625H98.7071V0.574446H81.9311C79.9983 0.574446 78.3469 1.2656 76.9734 2.64792C75.5998 4.03024 74.9131 5.70113 74.9131 7.66061V7.65526Z" fill="black"/>
<path d="M70.2369 20.9957C67.9059 23.3417 65.1093 24.5156 61.8489 24.5156H49.9404V20.187H61.8489C63.9163 20.187 65.6934 19.4388 67.1802 17.9425C68.6669 16.4462 69.4103 14.6488 69.4103 12.5539C69.4103 10.4591 68.6669 8.66172 67.1802 7.16539C65.6934 5.66907 63.9163 4.92091 61.8489 4.92091H49.9404V0.569099H61.8489C65.0933 0.569099 67.8864 1.74656 70.2245 4.10149C72.5627 6.45464 73.7327 9.27272 73.7327 12.5539C73.7327 15.8352 72.5662 18.6497 70.2352 20.9957H70.2369Z" fill="black"/>
<path d="M118.122 24.5273C121.382 24.5273 124.177 23.3534 126.51 21.0074C128.843 18.6614 130.007 15.8469 130.007 12.5657C130.007 9.28443 128.841 6.44855 126.51 4.10252C124.179 1.7565 121.382 0.582596 118.122 0.582596C114.862 0.582596 112.044 1.7565 109.711 4.10252C107.378 6.44855 106.213 9.27018 106.213 12.5657C106.213 15.8611 107.38 18.6614 109.711 21.0074C112.042 23.3534 114.846 24.5273 118.122 24.5273ZM112.768 17.9542C111.281 16.4579 110.537 14.6605 110.537 12.5657C110.537 10.4708 111.281 8.67344 112.768 7.17711C114.254 5.68079 116.039 4.93262 118.122 4.93262C120.205 4.93262 121.986 5.68079 123.464 7.17711C124.943 8.67165 125.682 10.469 125.682 12.5657C125.682 14.6623 124.942 16.4579 123.464 17.9542C121.984 19.4505 120.203 20.1987 118.122 20.1987C116.04 20.1987 114.254 19.4505 112.768 17.9542Z" fill="black"/>
<path d="M138.532 12.2443L130.995 5.44138C129.893 4.44562 129.682 2.58234 130.525 1.28018C131.02 0.514203 131.767 0.113401 132.523 0.113401C133.056 0.113401 133.59 0.31113 134.047 0.722619L142.672 8.50885L138.532 12.2461V12.2443Z" fill="url(#paint0_linear_302_1682)"/>
<path d="M138.532 12.8457L142.672 16.5829L134.047 24.3691C132.944 25.3667 131.367 25.1173 130.525 23.8116C129.682 22.5094 129.893 20.6444 130.995 19.6504L138.532 12.8475V12.8457Z" fill="url(#paint1_linear_302_1682)"/>
<path d="M153.485 0.132195C152.952 0.132195 152.418 0.329926 151.961 0.741415L138.865 12.5642L151.961 24.3887C153.064 25.3862 154.641 25.1368 155.483 23.8311C156.326 22.529 156.115 20.6639 155.012 19.6699L147.143 12.5659L155.012 5.46196C156.115 4.46619 156.326 2.60291 155.483 1.30075C154.988 0.534779 154.241 0.133978 153.485 0.133978V0.132195Z" fill="black"/>
</g>
<defs>
<linearGradient id="paint0_linear_302_1682" x1="131.599" y1="0.686968" x2="146.466" y2="14.4866" gradientUnits="userSpaceOnUse">
<stop stop-color="#808080"/>
<stop offset="1"/>
</linearGradient>
<linearGradient id="paint1_linear_302_1682" x1="131.245" y1="22.7748" x2="149.044" y2="7.21188" gradientUnits="userSpaceOnUse">
<stop stop-color="#808080"/>
<stop offset="1"/>
</linearGradient>
<clipPath id="clip0_302_1682">
<rect width="156" height="24.8906" fill="white" transform="matrix(1 0 0 -1 0 25)"/>
</clipPath>
</defs>
</svg>
